<?xml version="1.0" standalone="no"?>
<!DOCTYPE svg PUBLIC "-//W3C//DTD SVG 20010904//EN"
 "http://www.w3.org/TR/2001/REC-SVG-20010904/DTD/svg10.dtd">
<svg version="1.0" xmlns="http://www.w3.org/2000/svg"
 width="1280.000000pt" height="1280.000000pt" viewBox="0 0 1280.000000 1280.000000"
 preserveAspectRatio="xMidYMid meet">
<metadata>
Created by potrace 1.14, written by Peter Selinger 2001-2017
</metadata>
<g transform="translate(0.000000,1280.000000) scale(0.100000,-0.100000)"
fill="#000000" stroke="none">
<path d="M6335 12184 c-691 -85 -1257 -383 -1801 -946 -155 -161 -590 -668
-714 -833 -328 -437 -497 -831 -567 -1326 -21 -150 -24 -590 -5 -739 l12 -95
-99 -96 c-67 -64 -121 -107 -167 -131 -70 -36 -177 -68 -230 -68 -46 0 -91
-34 -104 -77 -8 -26 -11 -107 -8 -237 l3 -198 27 -23 c19 -17 46 -26 86 -31
l58 -6 11 -58 c19 -99 95 -183 185 -205 23 -6 30 -17 45 -68 l19 -62 -43 -7
c-48 -7 -116 -44 -150 -80 -12 -12 -38 -50 -58 -83 -103 -172 -107 -364 -14
-755 41 -174 82 -275 160 -401 142 -225 155 -267 164 -529 5 -157 4 -212 -9
-284 -43 -242 12 -414 162 -503 23 -14 42 -30 42 -36 0 -71 24 -353 35 -427
62 -389 230 -746 501 -1069 48 -57 194 -212 324 -345 182 -185 264 -278 352
-396 138 -185 289 -410 386 -575 135 -229 197 -318 282 -405 136 -139 252
-215 415 -269 105 -35 171 -42 632 -67 266 -15 342 -16 520 -6 345 20 488 48
658 132 229 111 397 299 796 886 306 451 492 687 815 1039 259 283 388 469
503 725 82 182 157 433 200 679 18 98 25 118 52 149 82 93 112 234 89 414 -18
136 -17 495 1 581 14 67 70 182 153 316 71 114 104 193 139 326 84 324 104
542 63 678 -10 34 -10 49 0 77 7 19 53 148 102 285 l90 250 47 23 c27 13 84
60 135 112 105 106 110 120 110 331 0 195 -10 210 -150 225 -132 13 -223 72
-357 230 -132 156 -222 222 -355 255 l-49 13 8 101 c47 585 -103 1212 -412
1720 -114 188 -378 549 -574 785 -129 155 -442 468 -571 570 -370 293 -723
450 -1190 526 -138 23 -596 28 -755 8z"/>
</g>
</svg>
