<svg width="32" height="32" viewBox="0 0 32 32" fill="none" xmlns="http://www.w3.org/2000/svg">
<path d="M29.2 1H2.8C1.80589 1 1 1.80589 1 2.8V29.2C1 30.1941 1.80589 31 2.8 31H29.2C30.1941 31 31 30.1941 31 29.2V2.8C31 1.80589 30.1941 1 29.2 1Z" stroke="black" stroke-width="1.73077" stroke-miterlimit="10"/>
<path d="M6.3999 12.3984H9.9999V24.9984H6.3999V12.3984Z" stroke="black" stroke-width="1.73077" stroke-linecap="round" stroke-linejoin="round"/>
<path d="M8.2001 9.7C9.35989 9.7 10.3001 8.7598 10.3001 7.6C10.3001 6.4402 9.35989 5.5 8.2001 5.5C7.0403 5.5 6.1001 6.4402 6.1001 7.6C6.1001 8.7598 7.0403 9.7 8.2001 9.7Z" stroke="black" stroke-width="1.73077" stroke-linecap="round" stroke-linejoin="round"/>
<path d="M19.8999 15.4016C18.5745 15.4016 17.4999 16.1024 17.4999 18.1016V25.0016H13.8999V12.4016H17.4999V13.7276H17.4987C17.9487 13.2159 18.5028 12.8062 19.1238 12.5258C19.7448 12.2454 20.4185 12.1008 21.0999 12.1016C23.7507 12.1016 25.8999 14.0816 25.8999 17.5016V25.0016H22.2999V18.1016C22.2999 16.1024 21.2259 15.4016 19.8999 15.4016Z" stroke="black" stroke-width="1.73077" stroke-linecap="round" stroke-linejoin="round"/>
</svg>
