<svg width="38" height="31" viewBox="0 0 38 31" fill="none" xmlns="http://www.w3.org/2000/svg">
<path d="M35.2995 1.61766C35.2995 1.61766 33.4343 3.12115 30.8179 3.39182C30.8179 3.39182 26.6979 -1.20959 20.803 2.79057C18.1569 4.65496 17.9159 8.59449 18.367 10.0085C18.367 10.0085 10.3674 10.64 3.38985 2.45927C3.38985 2.45927 0.262331 7.8727 5.4354 12.2034C5.4354 12.2034 3.90593 12.4445 2.45296 11.2413C2.45296 11.2413 1.76582 16.8352 8.02157 18.3993C8.02157 18.3993 7.60077 19.1211 5.0745 18.3993C5.0745 18.3993 5.49531 22.9704 11.4501 23.6323C11.4501 23.6323 8.23306 26.9402 1 26.5194C1 26.5194 12.9536 35.4812 25.8859 24.6543C33.1038 18.5191 32.8634 9.67717 32.7429 8.35413C32.7429 8.35413 35.5939 6.18876 36.3338 4.80509C36.3338 4.80509 34.1265 5.52688 32.3221 5.52688C32.3221 5.52688 34.7278 4.26375 35.2995 1.61766V1.61766Z" stroke="black" stroke-width="1.73077" stroke-miterlimit="10" stroke-linecap="round" stroke-linejoin="round"/>
</svg>
